<?xml version="1.0" standalone="no"?>
<!DOCTYPE svg PUBLIC "-//W3C//DTD SVG 20010904//EN"
 "http://www.w3.org/TR/2001/REC-SVG-20010904/DTD/svg10.dtd">
<svg version="1.0" xmlns="http://www.w3.org/2000/svg"
 width="498.000000pt" height="128.000000pt" viewBox="0 0 498.000000 128.000000"
 preserveAspectRatio="xMidYMid meet">
<metadata>
Created by potrace 1.16, written by Peter Selinger 2001-2019
</metadata>
<g transform="translate(0.000000,128.000000) scale(0.100000,-0.100000)"
fill="#000000" stroke="none">
<path d="M410 1143 c-17 -6 -226 -137 -313 -195 -97 -66 -97 -66 -97 -332 0
-218 1 -230 22 -268 24 -43 83 -82 295 -195 163 -87 162 -87 397 62 114 72
196 131 206 148 14 23 18 67 24 252 10 317 25 293 -279 459 -123 67 -146 76
-190 75 -27 0 -57 -3 -65 -6z m233 -189 c67 -37 137 -82 155 -100 l32 -32 0
-184 c-1 -132 -4 -190 -14 -207 -7 -13 -80 -66 -162 -117 -115 -73 -156 -94
-184 -94 -52 0 -306 143 -338 190 -22 34 -23 40 -20 216 3 160 5 184 21 202
20 22 257 174 297 191 43 18 87 4 213 -65z"/>
<path d="M325 880 c-60 -39 -113 -74 -118 -79 -4 -4 23 -24 60 -44 l68 -35 58
34 c32 19 67 34 78 34 11 0 48 -16 82 -36 l61 -36 68 33 c44 21 68 38 66 48
-2 8 -57 45 -122 83 -155 88 -158 88 -301 -2z"/>
<path d="M180 599 c0 -93 4 -127 16 -148 16 -26 204 -141 232 -141 8 0 12 24
12 79 0 69 -2 80 -19 86 -10 3 -37 19 -60 35 -40 29 -41 32 -41 88 l0 58 -65
32 c-36 18 -68 32 -70 32 -3 0 -5 -54 -5 -121z"/>
<path d="M688 679 c-56 -28 -58 -31 -58 -69 0 -58 -15 -82 -71 -113 l-49 -28
0 -80 c0 -43 3 -79 6 -79 12 0 189 113 217 139 27 24 27 27 27 143 0 65 -3
118 -7 118 -5 -1 -34 -14 -65 -31z"/>
<path d="M1190 817 c0 -8 -3 -22 -6 -31 -4 -11 -1 -16 10 -16 9 0 16 -8 16
-20 0 -19 7 -20 118 -20 64 0 122 4 128 8 13 8 34 46 34 60 0 6 -51 12 -112
16 -62 3 -130 8 -150 12 -30 5 -38 3 -38 -9z"/>
<path d="M1500 738 c-24 -141 -50 -251 -65 -274 -22 -34 -19 -37 27 -30 49 8
83 36 98 80 10 30 60 270 60 287 0 5 -24 9 -54 9 l-54 0 -12 -72z"/>
<path d="M1673 790 c-44 -26 -56 -54 -51 -112 7 -71 30 -90 115 -97 56 -5 68
-9 71 -25 7 -34 -25 -46 -125 -46 l-93 0 -15 -36 c-8 -20 -15 -38 -15 -40 0
-2 52 -4 115 -4 78 0 127 5 150 14 46 20 75 69 75 128 0 58 -23 78 -92 78 -62
0 -98 14 -98 39 0 31 31 41 123 41 l84 0 27 40 26 40 -132 0 c-114 0 -138 -3
-165 -20z"/>
<path d="M2045 796 c-37 -16 -93 -78 -99 -109 -3 -12 -7 -56 -10 -98 -3 -50
-12 -91 -25 -118 l-21 -41 130 0 c139 0 182 10 229 53 32 30 61 94 61 139 0
49 33 87 82 95 32 5 41 1 68 -25 34 -34 39 -75 15 -121 -22 -43 -80 -56 -122
-26 -20 14 -22 13 -46 -28 l-25 -42 26 -17 c124 -81 297 35 279 188 -16 150
-201 218 -311 116 -34 -32 -65 -96 -66 -135 0 -40 -27 -86 -53 -92 -13 -4 -46
-5 -73 -3 l-49 3 -3 62 c-3 56 0 66 22 88 34 34 73 42 109 21 16 -9 31 -15 32
-14 15 24 45 81 43 83 -40 34 -139 45 -193 21z"/>
<path d="M3135 787 c-21 -12 -52 -40 -67 -62 -24 -33 -29 -54 -34 -125 -4 -47
-13 -100 -20 -119 -8 -18 -14 -38 -14 -43 0 -6 55 -9 143 -6 136 3 146 4 184
30 46 30 83 96 83 147 0 71 55 120 119 106 51 -11 79 -76 56 -131 -22 -53 -86
-72 -132 -39 -20 14 -22 13 -42 -25 -12 -23 -21 -43 -21 -46 0 -3 21 -14 47
-26 122 -54 253 38 253 178 0 99 -70 175 -168 182 -108 8 -183 -54 -203 -167
-6 -33 -20 -72 -31 -86 -17 -21 -28 -25 -77 -25 -31 0 -62 5 -69 12 -7 7 -12
34 -12 61 0 42 5 54 34 83 37 37 62 42 106 19 28 -14 28 -14 49 26 12 22 21
41 21 43 0 2 -15 11 -34 20 -49 23 -123 20 -171 -7z"/>
<path d="M3763 790 c-61 -37 -70 -152 -16 -188 15 -9 54 -19 87 -22 50 -4 61
-8 64 -24 7 -34 -25 -46 -125 -46 l-93 0 -15 -36 c-8 -20 -15 -38 -15 -40 0
-10 239 -2 270 9 39 14 66 54 76 114 5 36 3 45 -19 67 -22 21 -35 26 -79 26
-51 0 -98 19 -98 40 0 5 7 16 16 24 12 12 37 16 110 16 81 0 97 3 114 20 11
11 20 29 20 40 0 19 -7 20 -132 20 -114 0 -138 -3 -165 -20z"/>
<path d="M2731 779 c-10 -24 -71 -321 -71 -346 0 -10 29 -13 130 -13 129 0
130 0 162 29 30 27 33 35 35 93 1 35 9 80 17 100 23 53 20 92 -8 125 -23 27
-28 28 -140 31 -113 4 -116 4 -125 -19z"/>
<path d="M4433 770 c-19 -8 -43 -38 -43 -54 0 -14 37 -4 53 15 20 23 45 22 60
-3 14 -22 -7 -48 -39 -48 -17 0 -24 -6 -24 -20 0 -13 7 -20 19 -20 34 0 51
-12 51 -35 0 -37 -57 -48 -98 -19 -19 13 -22 13 -22 0 0 -24 41 -46 85 -46 22
0 51 7 63 16 28 19 29 65 1 90 -19 17 -19 19 -3 31 20 15 22 60 2 79 -18 19
-76 26 -105 14z"/>
<path d="M4699 751 c-26 -27 -29 -36 -29 -96 0 -57 3 -69 25 -91 34 -34 99
-31 127 7 22 29 27 114 8 158 -23 55 -87 66 -131 22z"/>
<path d="M1206 648 c-8 -13 -19 -50 -25 -82 -6 -33 -20 -77 -31 -98 -21 -41
-19 -43 39 -32 42 9 72 42 91 101 l15 48 65 5 c76 6 85 10 98 50 l11 30 -124
0 c-118 0 -125 -1 -139 -22z"/>
</g>
</svg>
