<svg width="45" height="30" viewBox="0 0 45 30" fill="none" xmlns="http://www.w3.org/2000/svg">
<rect x="2" y="2.37598" width="40.4421" height="25.3335" rx="5.14736" fill="#6F9BFF" fill-opacity="0.6"/>
<path d="M34.7203 15.102C34.76 19.5463 33.0934 21.7486 29.7205 21.7089C26.4666 21.6296 24.8198 19.4273 24.7801 15.102C24.8595 10.7767 26.5063 8.5347 29.7205 8.37598C33.014 8.41566 34.6806 10.6577 34.7203 15.102ZM31.8037 15.1615C31.8434 11.7886 31.1688 10.1418 29.78 10.2212C28.3515 10.1815 27.6372 11.8283 27.6372 15.1615C27.6372 18.3757 28.3515 19.9828 29.78 19.9828C31.1292 19.9828 31.8037 18.3757 31.8037 15.1615Z" fill="white"/>
<path d="M23.4111 21.5899H20.5541V18.7924H23.4111V21.5899Z" fill="white"/>
<path d="M12.6376 19.8042H19.2446V21.4709H9.78056V19.7447C10.6139 18.3162 11.8638 16.9869 13.5305 15.7567C15.5939 14.2885 16.5661 13.1179 16.447 12.2449C16.447 10.8958 15.832 10.241 14.6019 10.2807C13.332 10.3204 12.5979 11.1537 12.3995 12.7806H9.72104C10.2369 9.92355 11.9234 8.47518 14.7804 8.4355C17.6772 8.51486 19.1851 9.74499 19.3041 12.1259C19.4232 13.8322 18.451 15.3004 16.3875 16.5305C14.5622 17.6019 13.3122 18.6932 12.6376 19.8042Z" fill="white"/>
</svg>
