<svg width="45" height="30" viewBox="0 0 45 30" fill="none" xmlns="http://www.w3.org/2000/svg">
<rect x="2" y="2.37109" width="40.3939" height="25.2717" rx="5.13131" fill="#6F9BFF" fill-opacity="0.6"/>
<path d="M34.6963 15.0652C34.7357 19.4885 33.077 21.6804 29.7201 21.6409C26.4816 21.5619 24.8427 19.37 24.8032 15.0652C24.8821 10.7604 26.5211 8.52907 29.7201 8.37109C32.998 8.41059 34.6568 10.642 34.6963 15.0652ZM31.7935 15.1245C31.833 11.7675 31.1616 10.1285 29.7793 10.2075C28.3576 10.168 27.6467 11.807 27.6467 15.1245C27.6467 18.3234 28.3576 19.9229 29.7793 19.9229C31.1221 19.9229 31.7935 18.3234 31.7935 15.1245Z" fill="white"/>
<path d="M23.4407 21.5224H20.5971V18.7381H23.4407V21.5224Z" fill="white"/>
<path d="M9.99313 19.9229V17.8495C11.1384 19.1923 12.4615 19.8637 13.9622 19.8637C15.5814 19.8242 16.4108 19.1528 16.4503 17.8495C16.4503 16.6252 15.5222 16.0131 13.666 16.0131H12.4812V13.8212H13.6068C15.3445 13.8212 16.2133 13.209 16.2133 11.9847C16.1738 10.8789 15.5814 10.3063 14.4361 10.2668C13.2118 10.3063 12.5207 10.9382 12.3627 12.1625H9.69693C10.2103 9.71388 11.8098 8.46984 14.4954 8.43034C17.4179 8.50933 18.9186 9.61514 18.9976 11.7478C19.0371 13.367 18.1485 14.3741 16.3318 14.769C18.267 15.1245 19.2741 16.1513 19.3531 17.8495C19.3531 20.3771 17.7733 21.6409 14.6139 21.6409C12.6787 21.6804 11.1384 21.1077 9.99313 19.9229Z" fill="white"/>
</svg>
