<svg width="498" height="105" viewBox="0 0 498 105" fill="none" xmlns="http://www.w3.org/2000/svg">
<g clip-path="url(#clip0_367_512)">
<g clip-path="url(#clip1_367_512)">
<path d="M85.6837 19.3034C72.4665 11.2055 55.2418 2.17002 55.2418 2.17002C50.0728 -0.709058 42.4063 0.228509 39.046 2.31937C29.9109 7.98626 6.4966 22.9293 6.4966 22.9293C3.80005 24.6385 0.589091 28.3389 0.290397 34.0639C0.298694 34.0722 0 72.1391 0 72.4295C0 76.3872 3.23585 83.3982 8.40492 86.2773C8.40492 86.2773 25.1484 96.1674 38.9962 103.137C38.9962 103.137 47.3679 108.024 54.3457 103.635C54.8768 103.303 87.6999 82.6017 87.6999 82.6017C91.2013 80.5109 93.9808 75.5243 93.9061 71.4671L94.1882 32.0975C94.2463 23.8502 85.692 19.3117 85.6837 19.3034ZM83.5929 67.3434C83.651 70.5046 81.4854 74.3959 78.7557 76.0304C78.7557 76.0304 53.1593 92.1682 52.7527 92.4254C47.3098 95.8521 40.7883 92.0438 40.78 92.0438C29.9856 86.6092 16.9343 78.9012 16.9343 78.9012C12.9019 76.661 10.3796 71.1933 10.3879 68.1068C10.3879 67.8827 10.6202 38.1959 10.6202 38.1959C10.8526 33.732 13.35 30.8447 15.4574 29.5088C15.4574 29.5088 33.711 17.8598 40.8298 13.4374C43.4517 11.8112 49.4256 11.0811 53.458 13.3213C53.458 13.3213 66.8826 20.3655 77.1875 26.6795C77.1875 26.6795 83.8667 30.2224 83.8169 36.6526L83.5929 67.3517V67.3434Z" fill="#194EA0"/>
<path d="M43.2194 69.0113L34.7647 64.1326C32.5328 62.8383 31.1554 60.457 31.1554 57.8766V49.8036L18.3365 43.1743C18.295 48.7499 18.1705 64.6885 18.1705 64.8296C18.1705 67.2606 20.1535 71.5668 23.3313 73.3341C23.3313 73.3341 33.6197 79.4075 42.1242 83.6888C42.1242 83.6888 42.539 83.9294 43.2194 84.2115V69.003V69.0113Z" fill="#ED1C27"/>
<path d="M33.6611 42.3611C34.0013 42.0625 34.3664 41.7887 34.773 41.5563L43.4932 36.52C45.7251 35.2257 48.4797 35.2257 50.7199 36.52L59.4401 41.5563C60.162 41.9712 60.7759 42.5105 61.2986 43.1245L74.8975 36.0969C73.3626 33.5663 70.8154 32.2055 70.8071 32.2055C62.6926 27.2273 52.1055 21.6849 52.1055 21.6849C48.9277 19.9176 44.2233 20.4901 42.1573 21.7761C36.5485 25.2609 22.1614 34.4375 22.1614 34.4375C21.6802 34.7444 21.1741 35.1593 20.6928 35.6737L33.6611 42.3777V42.3611Z" fill="#ED1C27"/>
<path d="M63.0411 50.9486V57.8766C63.0411 60.457 61.6637 62.8383 59.4318 64.1326L50.9771 69.0113V84.3111C51.168 84.2115 51.3588 84.1202 51.5496 83.9958C51.8732 83.7884 72.0434 71.0773 72.0434 71.0773C74.1923 69.7912 75.9015 66.7296 75.8517 64.2322C75.8517 64.2322 75.8987 57.5696 75.9928 44.2446L63.0328 50.9403L63.0411 50.9486Z" fill="#ED1C27"/>
<path d="M240.308 34.2964C230.625 34.2964 222.735 42.0292 222.154 51.7783C222.154 59.088 217.507 63.0457 212.164 63.0457H206.597C204.199 63.0457 202.34 61.0793 202.34 58.6814V53.0063C202.34 47.4389 206.812 42.8589 212.264 42.8589C214.993 42.8589 217.499 44.062 219.358 45.9123C220.121 43.0747 221.54 40.4611 223.506 38.279C220.453 35.7733 216.528 34.3545 212.272 34.3545C202.233 34.3545 194.052 42.6432 194.052 53.0063C194.052 57.7937 194.002 59.005 194.002 59.005C194.002 63.2614 192.259 68.2811 189.638 71.5502H212.156C220.013 71.5502 224.601 66.7462 226.302 64.8379C229.107 61.7016 230.401 57.3373 230.426 52.8154C230.426 47.2398 234.84 42.7262 240.291 42.7262C245.742 42.7262 250.156 47.2398 250.156 52.8071C250.156 58.3744 245.742 62.888 240.291 62.888C237.545 62.888 235.056 61.7348 233.272 59.8762C232.367 62.7221 230.866 65.2859 228.932 67.4597C232.052 70.0069 235.993 71.5419 240.291 71.5419C250.355 71.5419 258.511 63.2033 258.511 52.915C258.511 42.6266 250.314 34.2881 240.291 34.2881L240.308 34.2964Z" fill="#194EA0"/>
<path d="M174.703 71.5502C177.076 71.5502 182.842 71.4174 185.804 68.5301C188.177 66.2152 189.787 61.4776 189.87 58.4242C190.069 51.156 186.037 49.9944 175.657 50.1604C173.873 50.1853 170.413 49.4551 170.413 46.0367C170.413 42.6183 174.678 41.6725 176.495 41.6725L191.82 41.6559C192.998 38.8515 194.724 36.3292 196.922 34.2715H175.392C171.683 34.3877 168.464 35.3335 166.207 37.2916C163.991 39.2331 162.672 42.2201 162.672 46.4765C162.672 50.1106 163.419 52.2595 164.73 53.7862C166.041 55.3046 167.874 56.2338 171.326 56.6155C174.487 56.964 178.287 56.7897 179.424 57.0303C181.092 57.3871 182.253 58.3745 181.697 61.071C181.365 63.1951 178.86 64.4313 174.18 64.4313H159.378C158.648 66.9121 157.395 69.5589 155.769 71.5585H174.678L174.703 71.5502ZM161.718 34.2549H152.218L146.368 62.9213C145.978 65.0204 144.717 68.7043 142.386 71.5502C153.645 71.7742 155.321 65.6676 156.458 60.6976L161.718 34.2549ZM119.677 32.6951H124.331L123.386 37.441H118.731L119.677 32.6951ZM125.012 33.7737H128.604L127.874 37.441H124.282L125.012 33.7737ZM121.56 37.9803H124.796L124.149 41.2659H120.913L121.56 37.9803ZM113.686 71.5502C123.742 71.5502 125.559 66.879 126.879 63.6597C127.343 62.523 127.907 60.2496 128.131 58.7727C128.638 55.4871 130.587 55.4456 131.716 55.4041H140.453C141.606 55.4041 142.767 54.9229 143.688 54.1264C144.634 53.3299 145.34 52.2429 145.572 51.0648L146.161 48.1442H124.846C119.884 48.1442 119.279 53.9604 118.739 57.5365C118.208 61.0627 117.428 66.9619 113.678 71.5502H113.686ZM142.95 41.5231C145.688 41.5231 147.704 39.0091 148.094 37.1589C148.36 35.9143 148.584 34.7195 148.683 34.2549H129.119L128.314 38.3205H125.427L124.796 41.5231H142.95Z" fill="#194EA0"/>
<path d="M350.667 34.2964C340.984 34.2964 333.094 42.0293 332.513 51.7783C332.513 59.088 327.867 63.0457 322.523 63.0457H316.956C314.558 63.0457 312.7 61.0793 312.7 58.6815V53.0063C312.7 47.439 317.172 42.859 322.623 42.859C325.353 42.859 327.858 44.0621 329.717 45.9123C330.48 43.0747 331.899 40.4611 333.865 38.279C330.812 35.7733 326.888 34.3545 322.631 34.3545C312.592 34.3545 304.411 42.6433 304.411 53.0063C304.411 57.7937 304.361 59.0051 304.361 59.0051C304.361 63.2614 302.619 68.2812 299.997 71.5502H322.515C330.372 71.5502 334.961 66.7462 336.662 64.8379C339.466 61.7016 340.76 57.3373 340.785 52.8154C340.785 47.2398 345.199 42.7262 350.65 42.7262C356.101 42.7262 360.516 47.2398 360.516 52.8072C360.516 58.3745 356.101 62.8881 350.65 62.8881C347.904 62.8881 345.415 61.7348 343.631 59.8762C342.727 62.7221 341.225 65.2859 339.292 67.4598C342.411 70.007 346.352 71.5419 350.65 71.5419C360.715 71.5419 368.871 63.2034 368.871 52.915C368.871 42.6267 360.673 34.2881 350.65 34.2881L350.667 34.2964Z" fill="#194EA0"/>
<path d="M384.809 34.2549C381.101 34.3711 377.881 35.3169 375.624 37.275C373.409 39.2166 372.09 42.2035 372.09 46.4599C372.09 50.094 372.837 52.2429 374.148 53.7696C375.459 55.288 377.292 56.2172 380.744 56.5989C383.905 56.9474 387.705 56.7731 388.842 57.0137C390.509 57.3705 391.671 58.3579 391.115 61.0544C390.783 63.1785 388.277 64.4147 383.598 64.4147H368.796C368.066 66.8955 366.813 69.5423 365.187 71.5419H384.096C386.469 71.5419 392.235 71.4091 395.197 68.5218C397.57 66.2069 399.18 61.4693 399.263 58.4159C399.462 51.1477 395.43 49.9861 385.05 50.1521C383.266 50.177 379.806 49.4468 379.806 46.0284C379.806 42.6101 384.071 41.6642 385.888 41.6642H400.151C402.938 41.6559 404.988 39.0921 405.386 37.2087C405.652 35.9392 405.884 34.7278 405.983 34.2549H384.793H384.809Z" fill="#194EA0"/>
<path d="M291.741 35.9309H274.019L266.493 73.0188V73.1267C266.493 73.1267 284.058 73.1267 285.253 73.0188C290.953 73.0188 293.791 71.5502 295.068 70.1812C300.702 64.6139 298.91 55.0308 297.574 54.367C301.233 51.3137 306.427 35.9309 291.741 35.9309ZM290.049 42.8009C291.683 43.1245 292.886 44.1118 292.339 46.8333C292.015 48.9075 289.609 50.8656 287.866 51.0897C286.887 51.1975 280.233 51.3054 280.233 51.3054L281.976 42.6847C284.921 42.5769 289.285 42.5769 290.049 42.7926V42.8009ZM290.945 61.6435C290.837 64.9292 287.817 66.0161 283.95 66.0161C282.399 66.0161 276.956 66.0327 276.956 66.0327L278.922 58.3994H287.394C289.061 58.3994 291.036 59.0217 290.945 61.6435Z" fill="#194EA0"/>
</g>
<rect x="425" y="33.7495" width="69.9388" height="36.501" rx="8" fill="#CFE2FF"/>
<path d="M482.938 52.1089C483.01 60.2756 479.948 64.3224 473.75 64.2495C467.771 64.1037 464.745 60.0568 464.672 52.1089C464.818 44.161 467.844 40.0412 473.75 39.7495C479.802 39.8224 482.865 43.9422 482.938 52.1089ZM477.578 52.2183C477.651 46.0203 476.411 42.9943 473.859 43.1401C471.234 43.0672 469.922 46.0933 469.922 52.2183C469.922 58.1245 471.234 61.0776 473.859 61.0776C476.339 61.0776 477.578 58.1245 477.578 52.2183Z" fill="#194EA0"/>
<path d="M462.156 64.0308H456.906V58.8901H462.156V64.0308Z" fill="#194EA0"/>
<path d="M442.359 60.7495H454.5V63.812H437.109V60.6401C438.641 58.0151 440.938 55.5724 444 53.312C447.792 50.6141 449.578 48.4631 449.359 46.8589C449.359 44.3797 448.229 43.1766 445.969 43.2495C443.635 43.3224 442.286 44.8537 441.922 47.8433H437C437.948 42.5933 441.047 39.9318 446.297 39.8589C451.62 40.0047 454.391 42.2651 454.609 46.6401C454.828 49.7756 453.042 52.4735 449.25 54.7339C445.896 56.7026 443.599 58.7078 442.359 60.7495Z" fill="#194EA0"/>
</g>
<defs>
<clipPath id="clip0_367_512">
<rect width="498" height="105" fill="white"/>
</clipPath>
<clipPath id="clip1_367_512">
<rect width="406" height="105.107" fill="white" transform="translate(0 0.36142)"/>
</clipPath>
</defs>
</svg>
